# xmcd
#
# Track frame offsets:
#	150
#	12370
#	24772
#	40732
#	55382
#
# Disc length: 912 seconds
#
# Revision: 0
# Processed by: cddbd v1.5PL3 Copyright (c) Steve Scherf et al.
# Submitted via: audiograbber 1.82.02
#
DISCID=31038e05
DTITLE=Fragment - Little Dreams
DYEAR=1995
DGENRE=Bluegrass
TTITLE0=Balls In The Corner
TTITLE1=Can´t You Hear Me Calling
TTITLE2=Angel
TTITLE3=Hands Off
TTITLE4=Mas svuj plan (Just Your Plan)
EXTD=
EXTT0=
EXTT1=
EXTT2=
EXTT3=
EXTT4=
PLAYORDER=
